<?xml version="1.0" standalone="no"?>
<!DOCTYPE svg PUBLIC "-//W3C//DTD SVG 20010904//EN"
 "http://www.w3.org/TR/2001/REC-SVG-20010904/DTD/svg10.dtd">
<svg version="1.0" xmlns="http://www.w3.org/2000/svg"
 width="1053.000000pt" height="832.000000pt" viewBox="0 0 1053.000000 832.000000"
 preserveAspectRatio="xMidYMid meet">

<g transform="translate(0.000000,832.000000) scale(0.100000,-0.100000)"
fill="#000000" stroke="none">
<path d="M0 4160 l0 -4160 5265 0 5265 0 0 4160 0 4160 -5265 0 -5265 0 0
-4160z m5305 1938 c29 -34 31 -47 10 -74 -8 -10 -15 -37 -15 -59 -1 -37 -4
-42 -52 -70 -71 -41 -105 -103 -88 -163 6 -23 22 -50 36 -61 30 -24 83 -36
113 -26 34 10 81 55 81 76 0 18 45 68 63 69 14 0 7 -44 -14 -86 -42 -89 -130
-132 -213 -104 -77 25 -118 82 -118 161 0 65 28 116 90 163 53 40 64 64 37 86
-22 18 -19 73 5 95 20 18 20 31 20 730 0 391 3 715 8 719 4 4 8 -315 10 -709
l2 -717 25 -30z m-232 1217 c59 -8 112 -17 118 -21 44 -27 -92 -376 -223 -573
-24 -36 -47 -72 -53 -80 -85 -134 -269 -355 -527 -633 -191 -207 -275 -337
-331 -514 -140 -445 61 -931 512 -1234 112 -75 326 -160 403 -160 16 0 19 -3
11 -11 -17 -17 -263 -13 -369 5 -179 31 -373 114 -511 218 -42 32 -78 56 -80
54 -2 -2 -6 -34 -9 -72 -16 -198 -119 -396 -284 -550 -83 -77 -106 -95 -214
-162 -92 -58 -123 -73 -113 -54 3 4 23 38 46 75 124 204 239 487 281 692 67
328 44 587 -78 880 -27 66 -59 150 -71 188 -71 233 -69 554 5 836 38 140 21
134 -45 -17 -23 -51 -57 -145 -75 -209 -19 -63 -36 -116 -38 -118 -11 -8 -127
-58 -208 -88 -169 -64 -364 -104 -550 -113 l-115 -5 130 68 c228 120 388 236
527 381 78 82 135 158 126 168 -3 3 -34 -4 -68 -16 -70 -24 -221 -38 -325 -30
l-70 5 57 27 c106 49 246 147 356 249 61 57 67 77 15 50 -114 -57 -316 -91
-583 -97 l-205 -5 114 36 c139 44 212 78 451 214 370 209 526 265 770 278
l125 6 77 66 c177 150 380 241 603 271 99 13 303 11 418 -5z m837 1 c223 -30
420 -122 603 -282 l59 -51 126 -6 c232 -11 436 -82 725 -254 225 -134 423
-223 592 -267 47 -12 -398 4 -481 17 -115 19 -239 53 -282 78 -61 35 -58 16 6
-44 107 -101 248 -202 349 -250 l68 -32 -75 -5 c-107 -7 -249 6 -321 30 -34
12 -64 18 -67 15 -10 -10 65 -107 145 -188 136 -138 372 -301 565 -391 l73
-34 -74 -1 c-160 -2 -456 59 -631 130 -151 60 -179 77 -186 108 -27 124 -120
370 -151 401 -13 13 -15 13 -10 -5 58 -206 79 -350 79 -535 -1 -187 -27 -326
-92 -495 -23 -60 -54 -139 -67 -175 -65 -173 -92 -384 -74 -576 28 -288 135
-606 295 -878 31 -52 56 -97 56 -101 0 -10 -84 37 -175 99 -106 72 -225 187
-284 274 -86 128 -129 244 -148 410 l-8 62 -71 -53 c-155 -117 -355 -200 -549
-228 -91 -13 -320 -13 -342 0 -16 9 -15 10 7 11 45 0 173 40 259 81 328 153
591 460 676 789 75 290 6 608 -187 857 -33 43 -117 139 -188 213 -410 434
-651 783 -743 1077 -35 113 -43 172 -22 179 80 31 379 42 545 20z m-1090
-1758 c52 -11 142 -38 200 -60 96 -38 149 -65 367 -186 279 -155 567 -238 800
-230 50 2 94 0 98 -4 13 -12 -26 -152 -65 -236 -52 -111 -111 -191 -206 -282
-311 -297 -804 -373 -1210 -186 -103 48 -177 99 -268 186 -132 126 -214 261
-256 425 -38 144 -27 350 25 491 12 31 25 45 53 58 107 48 297 58 462 24z
m-1355 -2568 c30 -29 40 -70 25 -114 -14 -45 -48 -66 -105 -66 -83 0 -127 71
-95 154 21 57 126 73 175 26z m954 -54 c17 -15 21 -33 23 -105 3 -85 3 -86 28
-82 14 2 63 4 110 4 116 2 178 -31 222 -118 19 -37 21 -56 19 -260 -1 -120 -3
-221 -5 -223 -7 -6 -122 -5 -144 2 -40 13 -46 42 -52 233 -5 167 -7 183 -25
197 -30 22 -71 27 -112 13 l-38 -12 -3 -218 -2 -217 -73 0 c-83 0 -103 10
-116 57 -5 18 -10 192 -11 387 -1 404 -11 366 97 362 43 -1 68 -7 82 -20z
m-1235 -68 c12 -47 6 -98 -14 -118 -18 -18 -33 -20 -164 -20 l-144 0 -4 -59
c-5 -97 -15 -91 137 -91 151 0 155 -2 155 -77 0 -72 -11 -78 -159 -81 l-131
-4 0 -124 c0 -144 3 -140 -98 -138 -51 1 -68 5 -85 23 -21 21 -22 29 -25 309
-2 158 0 301 3 318 3 18 17 44 32 58 l26 26 232 0 233 0 6 -22z m2576 -13 c13
-40 6 -88 -17 -107 -11 -9 -62 -15 -162 -18 l-146 -5 0 -70 0 -70 137 -3 137
-3 11 -39 c8 -31 7 -47 -4 -75 -8 -19 -16 -36 -18 -36 -2 -1 -61 -5 -133 -8
l-130 -6 -3 -127 -3 -127 -53 -6 c-69 -9 -124 8 -137 42 -5 13 -9 162 -9 329
l0 306 29 29 29 29 230 0 230 0 12 -35z m-1728 -118 c19 -8 43 -25 52 -38 20
-29 20 -77 1 -103 -13 -17 -17 -17 -77 -2 -91 23 -153 21 -179 -5 -19 -19 -20
-22 -4 -39 9 -10 33 -21 53 -24 145 -26 235 -86 247 -167 15 -99 -41 -181
-143 -210 -105 -30 -292 -8 -335 39 -24 26 -31 69 -17 102 15 35 27 37 98 10
88 -34 188 -25 198 17 9 34 -4 43 -83 59 -84 18 -171 60 -198 97 -30 43 -29
150 3 195 24 33 83 69 137 83 45 12 206 3 247 -14z m2213 -6 c60 -27 93 -56
111 -98 17 -40 20 -383 4 -414 -17 -32 -104 -69 -188 -80 -149 -20 -278 16
-336 94 -30 41 -30 153 0 194 34 46 90 71 189 83 146 18 155 20 155 34 0 8 -9
24 -19 37 -16 20 -30 24 -94 27 -50 3 -93 -1 -129 -12 -51 -15 -53 -15 -70 5
-10 12 -18 37 -18 56 0 73 78 104 250 99 72 -2 107 -8 145 -25z m650 -1 c19
-18 25 -33 25 -65 0 -51 -13 -65 -64 -65 -23 0 -63 -6 -91 -13 l-50 -13 -3
-211 -2 -211 -50 -7 c-62 -8 -105 1 -130 28 -19 19 -20 36 -20 239 0 173 3
225 15 247 27 54 166 102 277 98 55 -2 72 -7 93 -27z m536 3 l45 -23 45 23
c37 18 60 22 144 22 116 0 158 -16 209 -79 l31 -38 0 -241 0 -242 -66 -3 c-58
-2 -71 0 -94 20 l-27 23 -3 177 c-2 97 -6 185 -9 196 -13 40 -89 55 -125 25
-20 -17 -21 -28 -23 -228 l-3 -210 -73 -3 c-66 -3 -74 -1 -97 22 -25 25 -25
26 -25 206 0 179 0 181 -25 205 -26 26 -57 31 -99 15 l-26 -10 0 -214 c0 -243
7 -226 -90 -226 -47 0 -64 5 -84 23 l-26 22 -1 228 c-1 252 -2 248 66 286 74
40 119 50 215 48 75 -2 104 -7 141 -24z m-3970 -12 l24 -19 0 -274 0 -273 -42
-9 c-53 -11 -103 -2 -131 25 -22 19 -22 25 -22 294 l0 275 74 0 c58 0 79 -4
97 -19z"/>
<path d="M5253 6064 c-3 -8 -1 -20 5 -26 15 -15 43 8 35 28 -7 19 -32 18 -40
-2z"/>
<path d="M4610 7169 c-68 -27 -103 -103 -74 -164 23 -50 59 -75 106 -75 104 0
162 100 108 188 -27 44 -94 68 -140 51z m64 -82 c12 -9 17 -23 14 -42 -2 -24
-8 -31 -31 -33 -51 -6 -74 33 -40 70 19 21 33 23 57 5z"/>
<path d="M5828 7147 c-50 -42 -62 -101 -33 -157 32 -62 129 -80 184 -35 90 76
40 215 -77 215 -34 0 -54 -6 -74 -23z m100 -63 c43 -30 4 -93 -45 -73 -29 11
-32 63 -5 78 23 14 24 14 50 -5z"/>
<path d="M6080 2390 c-76 -12 -99 -45 -61 -91 15 -19 29 -24 63 -24 23 1 55 4
71 8 25 7 27 11 27 62 0 62 5 60 -100 45z"/>
</g>
</svg>
